<svg xmlns="http://www.w3.org/2000/svg" width="240" height="80" viewBox="0 0 240 80">
  <defs>
    <linearGradient id="glow" x1="0" y1="0" x2="1" y2="1">
      <stop offset="0%" stop-color="#ffd700" />
      <stop offset="100%" stop-color="#00d4ff" />
    </linearGradient>
    <filter id="blur">
      <feGaussianBlur in="SourceGraphic" stdDeviation="1.2" />
    </filter>
  </defs>

  <!-- Simple brain + magnifying glass icon -->
  <g transform="translate(12, 12)">
    <path d="M18 8c-1.1 0-2 .9-2 2v1h-1c-1.7 0-3 1.3-3 3v3c0 1.1.9 2 2 2h2v1c0 1.1.9 2 2 2h4c1.1 0 2-.9 2-2v-1h2c1.1 0 2-.9 2-2v-3c0-1.7-1.3-3-3-3h-1v-1c0-1.1-.9-2-2-2h-4z" fill="url(#glow)" filter="url(#blur)" />
    <circle cx="12" cy="16" r="3" fill="#0a0a1e" />
    <path d="M38 12c-6.6 0-12 5.4-12 12s5.4 12 12 12 12-5.4 12-12-5.4-12-12-12zm0 4c4.4 0 8 3.6 8 8s-3.6 8-8 8-8-3.6-8-8 3.6-8 8-8z" fill="url(#glow)" />
    <path d="M46 30l8 8" stroke="url(#glow)" stroke-width="3" stroke-linecap="round" />
  </g>

  <text x="70" y="50" font-family="Segoe UI, Arial, sans-serif" font-size="26" font-weight="700" fill="#ffffff" letter-spacing="0.8">
    TrueLens
  </text>
</svg>
